<svg xmlns="http://www.w3.org/2000/svg" viewBox="0 0 256 256" role="img" aria-labelledby="title desc">
  <title>Detective Chip</title>
  <desc>Original square cartoon law enforcement themed game character: Clue Finder.</desc>
  
  <defs>
    <filter id="softShadow" x="-20%" y="-20%" width="140%" height="150%">
      <feDropShadow dx="0" dy="8" stdDeviation="6" flood-color="#000000" flood-opacity="0.22"/>
    </filter>
    <linearGradient id="shine" x1="0" y1="0" x2="1" y2="1">
      <stop offset="0" stop-color="#FFFFFF" stop-opacity="0.30"/>
      <stop offset="0.45" stop-color="#FFFFFF" stop-opacity="0.06"/>
      <stop offset="1" stop-color="#000000" stop-opacity="0.10"/>
    </linearGradient>
  </defs>

  <rect x="37" y="36" width="182" height="184" rx="34" fill="#C89B64" filter="url(#softShadow)" stroke="#111827" stroke-width="7"/>
  <rect x="51" y="48" width="154" height="88" rx="26" fill="url(#shine)" opacity=".8"/>
  <path d="M73 76 q55-33 110 0 l-10 24 q-45-16-90 0z" fill="#6D4B2C" stroke="#111827" stroke-width="5"/><path d="M57 95 q71-20 142 0 q-5 16-142 0z" fill="#6D4B2C" stroke="#111827" stroke-width="5"/><path d="M84 82 q44-15 88 0" stroke="#F6D7A8" stroke-width="8" stroke-linecap="round"/>
  <path d="M82 104 q13-8 26 0" stroke="#1B1B1B" stroke-width="6" fill="none" stroke-linecap="round"/><path d="M148 104 q13-8 26 0" stroke="#1B1B1B" stroke-width="6" fill="none" stroke-linecap="round"/><circle cx="96" cy="112" r="8" fill="#1B1B1B"/><circle cx="160" cy="112" r="8" fill="#1B1B1B"/>
  <path d="M112 128 h32" stroke="#1B1B1B" stroke-width="6" stroke-linecap="round"/>
  <path d="M72 199 q56 27 112 0" fill="#6D4B2C" opacity=".65"/>
  <path d="M109 139 L147 139 L143 166 Q128 181 113 166 Z" fill="#F6D7A8" stroke="#6D4B2C" stroke-width="4" stroke-linejoin="round"/><path d="M121 153 h14" stroke="#6D4B2C" stroke-width="4" stroke-linecap="round"/>
  <circle cx="184" cy="151" r="19" fill="#FFFFFF" opacity=".45" stroke="#111827" stroke-width="5"/><path d="M198 165 l18 18" stroke="#111827" stroke-width="7" stroke-linecap="round"/>
  <path d="M67 56 q34-18 73-12" stroke="#FFFFFF" stroke-width="8" stroke-linecap="round" opacity=".22"/>
</svg>
