<svg xmlns="http://www.w3.org/2000/svg" viewBox="0 0 256 256" role="img" aria-labelledby="title desc">
  <title>Dispatcher Dot</title>
  <desc>Original square cartoon law enforcement themed game character: Command Center.</desc>
  
  <defs>
    <filter id="softShadow" x="-20%" y="-20%" width="140%" height="150%">
      <feDropShadow dx="0" dy="8" stdDeviation="6" flood-color="#000000" flood-opacity="0.22"/>
    </filter>
    <linearGradient id="shine" x1="0" y1="0" x2="1" y2="1">
      <stop offset="0" stop-color="#FFFFFF" stop-opacity="0.30"/>
      <stop offset="0.45" stop-color="#FFFFFF" stop-opacity="0.06"/>
      <stop offset="1" stop-color="#000000" stop-opacity="0.10"/>
    </linearGradient>
  </defs>

  <rect x="37" y="36" width="182" height="184" rx="34" fill="#7C6FEA" filter="url(#softShadow)" stroke="#111827" stroke-width="7"/>
  <rect x="51" y="48" width="154" height="88" rx="26" fill="url(#shine)" opacity=".8"/>
  <path d="M77 91 q4-49 51-49 q47 0 51 49" fill="none" stroke="#37307C" stroke-width="11" stroke-linecap="round"/><rect x="61" y="87" width="22" height="38" rx="10" fill="#37307C" stroke="#111827" stroke-width="4"/><rect x="173" y="87" width="22" height="38" rx="10" fill="#37307C" stroke="#111827" stroke-width="4"/><path d="M185 124 q-5 19-36 19" fill="none" stroke="#BCE3FF" stroke-width="6" stroke-linecap="round"/>
  <circle cx="96" cy="108" r="10" fill="#1B1B1B"/><circle cx="160" cy="108" r="10" fill="#1B1B1B"/><circle cx="100" cy="104" r="3" fill="#fff"/><circle cx="164" cy="104" r="3" fill="#fff"/>
  <path d="M114 129 q14 10 28 0" stroke="#1B1B1B" stroke-width="6" fill="none" stroke-linecap="round"/>
  <path d="M72 199 q56 27 112 0" fill="#37307C" opacity=".65"/>
  <circle cx="128" cy="162" r="5" fill="#BCE3FF"/><path d="M114 151 Q128 139 142 151" fill="none" stroke="#BCE3FF" stroke-width="5" stroke-linecap="round"/><path d="M105 140 Q128 120 151 140" fill="none" stroke="#BCE3FF" stroke-width="5" stroke-linecap="round"/>
  <rect x="50" y="163" width="42" height="28" rx="6" fill="#37307C" stroke="#111827" stroke-width="4"/><circle cx="63" cy="177" r="4" fill="#BCE3FF"/><circle cx="78" cy="177" r="4" fill="#BCE3FF"/><path d="M105 191 h46" stroke="#BCE3FF" stroke-width="5" stroke-linecap="round"/>
  <path d="M67 56 q34-18 73-12" stroke="#FFFFFF" stroke-width="8" stroke-linecap="round" opacity=".22"/>
</svg>
