<svg xmlns="http://www.w3.org/2000/svg" viewBox="0 0 256 256" role="img" aria-labelledby="title desc">
  <title>K-9 Keeper</title>
  <desc>Original square cartoon law enforcement themed game character: Canine Partner.</desc>
  
  <defs>
    <filter id="softShadow" x="-20%" y="-20%" width="140%" height="150%">
      <feDropShadow dx="0" dy="8" stdDeviation="6" flood-color="#000000" flood-opacity="0.22"/>
    </filter>
    <linearGradient id="shine" x1="0" y1="0" x2="1" y2="1">
      <stop offset="0" stop-color="#FFFFFF" stop-opacity="0.30"/>
      <stop offset="0.45" stop-color="#FFFFFF" stop-opacity="0.06"/>
      <stop offset="1" stop-color="#000000" stop-opacity="0.10"/>
    </linearGradient>
  </defs>

  <rect x="37" y="36" width="182" height="184" rx="34" fill="#4B7B54" filter="url(#softShadow)" stroke="#111827" stroke-width="7"/>
  <rect x="51" y="48" width="154" height="88" rx="26" fill="url(#shine)" opacity=".8"/>
  <path d="M72 68 q-23-40-38 2 q17 3 30 23" fill="#24482E" stroke="#111827" stroke-width="5"/><path d="M184 68 q23-40 38 2 q-17 3-30 23" fill="#24482E" stroke="#111827" stroke-width="5"/><path d="M82 75 q46-30 92 0 l-7 19 q-39-16-78 0z" fill="#4B7B54" stroke="#111827" stroke-width="5"/>
  <circle cx="96" cy="108" r="10" fill="#1B1B1B"/><circle cx="160" cy="108" r="10" fill="#1B1B1B"/><circle cx="100" cy="104" r="3" fill="#fff"/><circle cx="164" cy="104" r="3" fill="#fff"/>
  <path d="M108 128 q20 24 40 0" stroke="#1B1B1B" stroke-width="6" fill="none" stroke-linecap="round"/>
  <path d="M72 199 q56 27 112 0" fill="#24482E" opacity=".65"/>
  <circle cx="118" cy="153" r="5" fill="#F4B860"/><circle cx="128" cy="148" r="5" fill="#F4B860"/><circle cx="138" cy="153" r="5" fill="#F4B860"/><path d="M116 166 Q128 153 140 166 Q139 176 128 175 Q117 176 116 166Z" fill="#F4B860"/>
  <path d="M75 181 q53 23 106 0" fill="none" stroke="#24482E" stroke-width="12" stroke-linecap="round"/><circle cx="128" cy="194" r="8" fill="#F4B860" stroke="#111827" stroke-width="3"/>
  <path d="M67 56 q34-18 73-12" stroke="#FFFFFF" stroke-width="8" stroke-linecap="round" opacity=".22"/>
</svg>
