<svg xmlns="http://www.w3.org/2000/svg" viewBox="0 0 256 256" role="img" aria-labelledby="title desc">
  <title>Marine Marshal</title>
  <desc>Original square cartoon law enforcement themed game character: Harbor Patrol.</desc>
  
  <defs>
    <filter id="softShadow" x="-20%" y="-20%" width="140%" height="150%">
      <feDropShadow dx="0" dy="8" stdDeviation="6" flood-color="#000000" flood-opacity="0.22"/>
    </filter>
    <linearGradient id="shine" x1="0" y1="0" x2="1" y2="1">
      <stop offset="0" stop-color="#FFFFFF" stop-opacity="0.30"/>
      <stop offset="0.45" stop-color="#FFFFFF" stop-opacity="0.06"/>
      <stop offset="1" stop-color="#000000" stop-opacity="0.10"/>
    </linearGradient>
  </defs>

  <rect x="37" y="36" width="182" height="184" rx="34" fill="#1DA1C2" filter="url(#softShadow)" stroke="#111827" stroke-width="7"/>
  <rect x="51" y="48" width="154" height="88" rx="26" fill="url(#shine)" opacity=".8"/>
  <path d="M75 74 q53-34 106 0 l-11 22 q-42-13-84 0z" fill="#F7FBFF" stroke="#111827" stroke-width="5"/><path d="M86 72 q42-18 84 0" stroke="#0B5264" stroke-width="8" stroke-linecap="round"/><path d="M169 84 q26 4 32 19 q-25 5-46-6" fill="#F7FBFF" stroke="#111827" stroke-width="5"/>
  <circle cx="96" cy="108" r="10" fill="#1B1B1B"/><circle cx="160" cy="108" r="10" fill="#1B1B1B"/><circle cx="100" cy="104" r="3" fill="#fff"/><circle cx="164" cy="104" r="3" fill="#fff"/>
  <path d="M108 128 q20 24 40 0" stroke="#1B1B1B" stroke-width="6" fill="none" stroke-linecap="round"/>
  <path d="M72 199 q56 27 112 0" fill="#0B5264" opacity=".65"/>
  <path d="M128 140 v32 M116 152 h24 M116 168 q12 12 24 0" fill="none" stroke="#F7FBFF" stroke-width="6" stroke-linecap="round" stroke-linejoin="round"/><circle cx="128" cy="139" r="5" fill="#F7FBFF"/>
  <path d="M46 184 q14-17 28 0 q14 17 28 0 q14-17 28 0 q14 17 28 0 q14-17 28 0 q14 17 28 0" fill="none" stroke="#F7FBFF" stroke-width="8" stroke-linecap="round"/>
  <path d="M67 56 q34-18 73-12" stroke="#FFFFFF" stroke-width="8" stroke-linecap="round" opacity=".22"/>
</svg>
