<svg xmlns="http://www.w3.org/2000/svg" viewBox="0 0 256 256" role="img" aria-labelledby="title desc">
  <title>Mounted Milo</title>
  <desc>Original square cartoon law enforcement themed game character: Event Patrol.</desc>
  
  <defs>
    <filter id="softShadow" x="-20%" y="-20%" width="140%" height="150%">
      <feDropShadow dx="0" dy="8" stdDeviation="6" flood-color="#000000" flood-opacity="0.22"/>
    </filter>
    <linearGradient id="shine" x1="0" y1="0" x2="1" y2="1">
      <stop offset="0" stop-color="#FFFFFF" stop-opacity="0.30"/>
      <stop offset="0.45" stop-color="#FFFFFF" stop-opacity="0.06"/>
      <stop offset="1" stop-color="#000000" stop-opacity="0.10"/>
    </linearGradient>
  </defs>

  <rect x="37" y="36" width="182" height="184" rx="34" fill="#8B5B3E" filter="url(#softShadow)" stroke="#111827" stroke-width="7"/>
  <rect x="51" y="48" width="154" height="88" rx="26" fill="url(#shine)" opacity=".8"/>
  <path d="M81 74 q47-39 94 0 q-7 21-94 0z" fill="#4C2F20" stroke="#111827" stroke-width="5"/><path d="M64 93 q64-18 128 0 q-7 16-128 0z" fill="#4C2F20" stroke="#111827" stroke-width="5"/><path d="M99 75 q29-12 58 0" stroke="#F0C987" stroke-width="7" stroke-linecap="round"/>
  <circle cx="96" cy="108" r="10" fill="#1B1B1B"/><circle cx="160" cy="108" r="10" fill="#1B1B1B"/><circle cx="100" cy="104" r="3" fill="#fff"/><circle cx="164" cy="104" r="3" fill="#fff"/>
  <path d="M108 128 q20 24 40 0" stroke="#1B1B1B" stroke-width="6" fill="none" stroke-linecap="round"/>
  <path d="M72 199 q56 27 112 0" fill="#4C2F20" opacity=".65"/>
  <path d="M113 161 q0-22 15-22 q15 0 15 22 v10 h-9 v-10 q0-12-6-12 q-6 0-6 12 v10 h-9z" fill="#F0C987" stroke="#4C2F20" stroke-width="3"/>
  <path d="M58 92 q-28 44 2 91 q20-35 9-82" fill="#4C2F20" stroke="#111827" stroke-width="5"/><path d="M61 117 q18 12 2 26 q18 9 1 28" fill="none" stroke="#F0C987" stroke-width="4" stroke-linecap="round"/>
  <path d="M67 56 q34-18 73-12" stroke="#FFFFFF" stroke-width="8" stroke-linecap="round" opacity=".22"/>
</svg>
