<svg xmlns="http://www.w3.org/2000/svg" viewBox="0 0 256 256" role="img" aria-labelledby="title desc">
  <title>Ranger Rye</title>
  <desc>Original square cartoon law enforcement themed game character: Park Safety.</desc>
  
  <defs>
    <filter id="softShadow" x="-20%" y="-20%" width="140%" height="150%">
      <feDropShadow dx="0" dy="8" stdDeviation="6" flood-color="#000000" flood-opacity="0.22"/>
    </filter>
    <linearGradient id="shine" x1="0" y1="0" x2="1" y2="1">
      <stop offset="0" stop-color="#FFFFFF" stop-opacity="0.30"/>
      <stop offset="0.45" stop-color="#FFFFFF" stop-opacity="0.06"/>
      <stop offset="1" stop-color="#000000" stop-opacity="0.10"/>
    </linearGradient>
  </defs>

  <rect x="37" y="36" width="182" height="184" rx="34" fill="#5E8C3E" filter="url(#softShadow)" stroke="#111827" stroke-width="7"/>
  <rect x="51" y="48" width="154" height="88" rx="26" fill="url(#shine)" opacity=".8"/>
  <path d="M84 75 q44-45 88 0 q-12 17-44 17 q-32 0-44-17z" fill="#32501F" stroke="#111827" stroke-width="5"/><path d="M56 92 q72-19 144 0 q-14 18-144 0z" fill="#32501F" stroke="#111827" stroke-width="5"/><path d="M124 58 l9 0 l-4 23z" fill="#E7C77F" stroke="#111827" stroke-width="3"/>
  <circle cx="96" cy="108" r="10" fill="#1B1B1B"/><circle cx="160" cy="108" r="10" fill="#1B1B1B"/><circle cx="100" cy="104" r="3" fill="#fff"/><circle cx="164" cy="104" r="3" fill="#fff"/>
  <path d="M108 128 q20 24 40 0" stroke="#1B1B1B" stroke-width="6" fill="none" stroke-linecap="round"/>
  <path d="M72 199 q56 27 112 0" fill="#32501F" opacity=".65"/>
  <path d="M116 166 Q122 136 148 144 Q142 172 116 166Z" fill="#E7C77F" stroke="#32501F" stroke-width="3"/><path d="M119 164 Q130 155 144 146" fill="none" stroke="#32501F" stroke-width="3" stroke-linecap="round"/>
  <path d="M176 144 l17-8 l17 8 v42 l-17-8 l-17 8 z" fill="#E7C77F" stroke="#111827" stroke-width="4"/><path d="M193 136 v42 M176 144 v42" stroke="#111827" stroke-width="3" opacity=".55"/><path d="M183 157 q12-8 21 2" fill="none" stroke="#32501F" stroke-width="4" stroke-linecap="round"/>
  <path d="M67 56 q34-18 73-12" stroke="#FFFFFF" stroke-width="8" stroke-linecap="round" opacity=".22"/>
</svg>
