<svg xmlns="http://www.w3.org/2000/svg" viewBox="0 0 256 256" role="img" aria-labelledby="title desc">
  <title>Rescue Rookie</title>
  <desc>Original square cartoon law enforcement themed game character: Search &amp; Rescue.</desc>
  
  <defs>
    <filter id="softShadow" x="-20%" y="-20%" width="140%" height="150%">
      <feDropShadow dx="0" dy="8" stdDeviation="6" flood-color="#000000" flood-opacity="0.22"/>
    </filter>
    <linearGradient id="shine" x1="0" y1="0" x2="1" y2="1">
      <stop offset="0" stop-color="#FFFFFF" stop-opacity="0.30"/>
      <stop offset="0.45" stop-color="#FFFFFF" stop-opacity="0.06"/>
      <stop offset="1" stop-color="#000000" stop-opacity="0.10"/>
    </linearGradient>
  </defs>

  <rect x="37" y="36" width="182" height="184" rx="34" fill="#FF6B35" filter="url(#softShadow)" stroke="#111827" stroke-width="7"/>
  <rect x="51" y="48" width="154" height="88" rx="26" fill="url(#shine)" opacity=".8"/>
  <path d="M71 87 q11-50 57-50 q46 0 57 50 z" fill="#7A2A12" stroke="#111827" stroke-width="5"/><path d="M84 82 h88" stroke="#FFF3BF" stroke-width="10" stroke-linecap="round"/><path d="M62 91 h132" stroke="#111827" stroke-width="6" stroke-linecap="round"/>
  <circle cx="96" cy="108" r="10" fill="#1B1B1B"/><circle cx="160" cy="108" r="10" fill="#1B1B1B"/><circle cx="100" cy="104" r="3" fill="#fff"/><circle cx="164" cy="104" r="3" fill="#fff"/>
  <path d="M111 128 q17 20 34 0" stroke="#1B1B1B" stroke-width="6" fill="none" stroke-linecap="round"/><path d="M119 136 h18" stroke="#fff" stroke-width="3" stroke-linecap="round" opacity=".85"/>
  <path d="M72 199 q56 27 112 0" fill="#7A2A12" opacity=".65"/>
  <rect x="113" y="148" width="30" height="18" rx="5" fill="#FFF3BF" stroke="#7A2A12" stroke-width="3"/><rect x="122" y="139" width="12" height="36" rx="4" fill="#FFF3BF" stroke="#7A2A12" stroke-width="3"/>
  <path d="M183 139 q33 22 3 45 q-29 23-42-10" fill="none" stroke="#FFF3BF" stroke-width="6" stroke-linecap="round"/><path d="M171 151 q14 10 0 20" fill="none" stroke="#111827" stroke-width="3" stroke-linecap="round" opacity=".5"/>
  <path d="M67 56 q34-18 73-12" stroke="#FFFFFF" stroke-width="8" stroke-linecap="round" opacity=".22"/>
</svg>
