<svg xmlns="http://www.w3.org/2000/svg" viewBox="0 0 256 256" role="img" aria-labelledby="title desc">
  <title>Traffic Tango</title>
  <desc>Original square cartoon law enforcement themed game character: Road Safety.</desc>
  
  <defs>
    <filter id="softShadow" x="-20%" y="-20%" width="140%" height="150%">
      <feDropShadow dx="0" dy="8" stdDeviation="6" flood-color="#000000" flood-opacity="0.22"/>
    </filter>
    <linearGradient id="shine" x1="0" y1="0" x2="1" y2="1">
      <stop offset="0" stop-color="#FFFFFF" stop-opacity="0.30"/>
      <stop offset="0.45" stop-color="#FFFFFF" stop-opacity="0.06"/>
      <stop offset="1" stop-color="#000000" stop-opacity="0.10"/>
    </linearGradient>
  </defs>

  <rect x="37" y="36" width="182" height="184" rx="34" fill="#F2C84B" filter="url(#softShadow)" stroke="#111827" stroke-width="7"/>
  <rect x="51" y="48" width="154" height="88" rx="26" fill="url(#shine)" opacity=".8"/>
  <path d="M71 87 q11-50 57-50 q46 0 57 50 z" fill="#202124" stroke="#111827" stroke-width="5"/><path d="M84 82 h88" stroke="#FF7A59" stroke-width="10" stroke-linecap="round"/><path d="M62 91 h132" stroke="#111827" stroke-width="6" stroke-linecap="round"/>
  <circle cx="96" cy="108" r="10" fill="#1B1B1B"/><circle cx="160" cy="108" r="10" fill="#1B1B1B"/><circle cx="100" cy="104" r="3" fill="#fff"/><circle cx="164" cy="104" r="3" fill="#fff"/>
  <path d="M108 128 q20 24 40 0" stroke="#1B1B1B" stroke-width="6" fill="none" stroke-linecap="round"/>
  <path d="M72 199 q56 27 112 0" fill="#202124" opacity=".65"/>
  <circle cx="128" cy="157" r="18" fill="#FF7A59" stroke="#202124" stroke-width="4"/><path d="M117 157 h22" stroke="#202124" stroke-width="4" stroke-linecap="round"/>
  <path d="M192 135 l-20 54 h40z" fill="#FF7A59" stroke="#111827" stroke-width="4"/><path d="M180 166 h24" stroke="#FFFFFF" stroke-width="5" stroke-linecap="round"/><rect x="168" y="187" width="48" height="12" rx="3" fill="#202124" stroke="#111827" stroke-width="3"/>
  <path d="M67 56 q34-18 73-12" stroke="#FFFFFF" stroke-width="8" stroke-linecap="round" opacity=".22"/>
</svg>
